<svg width="584" height="184" viewBox="0 0 584 184" fill="none" xmlns="http://www.w3.org/2000/svg" xmlns:xlink="http://www.w3.org/1999/xlink">
<path d="M467.28,2.02C502.52,2.02 537.76,2.02 573,2.04C578.28,2.04 580.926,4.647 580.94,9.86C580.94,11.84 580.94,13.84 580.96,15.82C578.12,16.88 578.96,19.34 578.96,21.36C578.92,51.66 578.88,81.96 579,112.26C579,115.34 578.1,117.46 575.92,119.62C557.26,138.04 538.68,156.5 520.22,175.12C517.42,177.94 514.68,179.08 510.68,179.08C404.3,178.98 297.92,179 191.54,179C168.1,179 144.66,179 121.22,179.02C119.2,179.02 116.72,178.18 115.66,181C80.42,181 45.18,181 9.94,180.98C4.66,180.98 2.014,178.373 2,173.16C2,171.18 2,169.18 1.98,167.2C4.82,166.14 3.98,163.68 3.98,161.66C4.02,131.36 4.06,101.06 3.94,70.76C3.94,67.68 4.84,65.56 7.02,63.4C25.72,45 44.3,26.54 62.76,7.92C65.56,5.1 68.3,3.96 72.3,3.96C178.68,4.06 285.06,4.04 391.44,4.04C414.88,4.04 438.32,4.04 461.76,4.02C463.78,4.02 466.26,4.86 467.32,2.04L467.28,2.02Z" fill="#000000" fill-opacity="0.35"/>
<path d="M467.28,2.02C466.22,4.86 463.74,4 461.72,4C438.28,4.04 414.84,4.02 391.4,4.02C285.02,4.02 178.64,4.04 72.26,3.94C68.26,3.94 65.52,5.08 62.72,7.9C44.3,26.54 25.72,45 7.06,63.42C4.88,65.58 3.96,67.7 3.98,70.78C4.1,101.08 4.06,131.38 4.02,161.68C4.02,163.7 4.86,166.16 2.02,167.22C-0.34,166.44 0.06,164.46 0.06,162.66C0.06,131.2 0.08,99.72 0,68.26C0,65.7 0.86,63.96 2.62,62.22C22.66,42.36 42.64,22.46 62.58,2.5C64.36,0.7 66.18,0 68.7,0C199.88,0.06 331.04,0.04 462.22,0.06C464.1,0.06 466.36,-0.62 467.28,2L467.28,2.02Z" fill="#6EDFE4"/>
<path d="M115.7,181.02C116.76,178.18 119.24,179.04 121.26,179.04C144.7,179 168.14,179.02 191.58,179.02C297.96,179.02 404.34,179 510.72,179.1C514.72,179.1 517.46,177.96 520.26,175.14C538.7,156.52 557.3,138.04 575.96,119.64C578.14,117.48 579.06,115.36 579.04,112.28C578.92,81.98 578.96,51.68 579,21.38C579,19.36 578.16,16.9 581,15.84C583.36,16.62 582.96,18.6 582.96,20.4C582.96,51.86 582.94,83.32 583.02,114.78C583.02,117.34 582.16,119.08 580.4,120.82C560.36,140.68 540.38,160.58 520.46,180.54C518.66,182.34 516.84,183.02 514.32,183.02C383.14,182.96 251.98,182.98 120.8,182.96C118.92,182.96 116.66,183.64 115.74,181.02L115.7,181.02Z" fill="#6EDFE4"/>
</svg>
