<svg width="3874" height="2198" viewBox="0 0 3874 2198" fill="none" xmlns="http://www.w3.org/2000/svg" xmlns:xlink="http://www.w3.org/1999/xlink">
<line x1="75.3" y1="1" x2="75.3" y2="2197" stroke="#3A6E4F" stroke-opacity="0.5" stroke-width="0.7" stroke-miterlimit="3.999327"/>
<line x1="555.3" y1="1" x2="555.3" y2="2197" stroke="#3A6E4F" stroke-opacity="0.5" stroke-width="0.7" stroke-miterlimit="3.999327"/>
<line x1="315.3" y1="1" x2="315.3" y2="2197" stroke="#3A6E4F" stroke-opacity="0.5" stroke-width="0.7" stroke-miterlimit="3.999327"/>
<line x1="795.3" y1="1" x2="795.3" y2="2197" stroke="#3A6E4F" stroke-opacity="0.5" stroke-width="0.7" stroke-miterlimit="3.999327"/>
<line x1="195.3" y1="1" x2="195.3" y2="2197" stroke="#3A6E4F" stroke-opacity="0.5" stroke-width="0.7" stroke-miterlimit="3.999327"/>
<line x1="675.3" y1="1" x2="675.3" y2="2197" stroke="#3A6E4F" stroke-opacity="0.5" stroke-width="0.7" stroke-miterlimit="3.999327"/>
<line x1="435.3" y1="1" x2="435.3" y2="2197" stroke="#3A6E4F" stroke-opacity="0.5" stroke-width="0.7" stroke-miterlimit="3.999327"/>
<line x1="915.3" y1="1" x2="915.3" y2="2197" stroke="#3A6E4F" stroke-opacity="0.5" stroke-width="0.7" stroke-miterlimit="3.999327"/>
<line x1="1035.3" y1="1" x2="1035.3" y2="2197" stroke="#3A6E4F" stroke-opacity="0.5" stroke-width="0.7" stroke-miterlimit="3.999327"/>
<line x1="1515.3" y1="1" x2="1515.3" y2="2197" stroke="#3A6E4F" stroke-opacity="0.5" stroke-width="0.7" stroke-miterlimit="3.999327"/>
<line x1="1275.3" y1="1" x2="1275.3" y2="2197" stroke="#3A6E4F" stroke-opacity="0.5" stroke-width="0.7" stroke-miterlimit="3.999327"/>
<line x1="1755.3" y1="1" x2="1755.3" y2="2197" stroke="#3A6E4F" stroke-opacity="0.5" stroke-width="0.7" stroke-miterlimit="3.999327"/>
<line x1="1155.3" y1="1" x2="1155.3" y2="2197" stroke="#3A6E4F" stroke-opacity="0.5" stroke-width="0.7" stroke-miterlimit="3.999327"/>
<line x1="1635.3" y1="1" x2="1635.3" y2="2197" stroke="#3A6E4F" stroke-opacity="0.5" stroke-width="0.7" stroke-miterlimit="3.999327"/>
<line x1="1395.3" y1="1" x2="1395.3" y2="2197" stroke="#3A6E4F" stroke-opacity="0.5" stroke-width="0.7" stroke-miterlimit="3.999327"/>
<line x1="1875.3" y1="1" x2="1875.3" y2="2197" stroke="#3A6E4F" stroke-opacity="0.5" stroke-width="0.7" stroke-miterlimit="3.999327"/>
<line x1="1995.3" y1="1" x2="1995.3" y2="2197" stroke="#3A6E4F" stroke-opacity="0.5" stroke-width="0.7" stroke-miterlimit="3.999327"/>
<line x1="2475.3" y1="1" x2="2475.3" y2="2197" stroke="#3A6E4F" stroke-opacity="0.5" stroke-width="0.7" stroke-miterlimit="3.999327"/>
<line x1="2235.3" y1="1" x2="2235.3" y2="2197" stroke="#3A6E4F" stroke-opacity="0.5" stroke-width="0.7" stroke-miterlimit="3.999327"/>
<line x1="2715.3" y1="1" x2="2715.3" y2="2197" stroke="#3A6E4F" stroke-opacity="0.5" stroke-width="0.7" stroke-miterlimit="3.999327"/>
<line x1="2115.3" y1="1" x2="2115.3" y2="2197" stroke="#3A6E4F" stroke-opacity="0.5" stroke-width="0.7" stroke-miterlimit="3.999327"/>
<line x1="2595.3" y1="1" x2="2595.3" y2="2197" stroke="#3A6E4F" stroke-opacity="0.5" stroke-width="0.7" stroke-miterlimit="3.999327"/>
<line x1="2355.3" y1="1" x2="2355.3" y2="2197" stroke="#3A6E4F" stroke-opacity="0.5" stroke-width="0.7" stroke-miterlimit="3.999327"/>
<line x1="2835.3" y1="1" x2="2835.3" y2="2197" stroke="#3A6E4F" stroke-opacity="0.5" stroke-width="0.7" stroke-miterlimit="3.999327"/>
<line x1="2955.3" y1="1" x2="2955.3" y2="2197" stroke="#3A6E4F" stroke-opacity="0.5" stroke-width="0.7" stroke-miterlimit="3.999327"/>
<line x1="3435.3" y1="1" x2="3435.3" y2="2197" stroke="#3A6E4F" stroke-opacity="0.5" stroke-width="0.7" stroke-miterlimit="3.999327"/>
<line x1="3195.3" y1="1" x2="3195.3" y2="2197" stroke="#3A6E4F" stroke-opacity="0.5" stroke-width="0.7" stroke-miterlimit="3.999327"/>
<line x1="3675.3" y1="1" x2="3675.3" y2="2197" stroke="#3A6E4F" stroke-opacity="0.5" stroke-width="0.7" stroke-miterlimit="3.999327"/>
<line x1="3075.3" y1="1" x2="3075.3" y2="2197" stroke="#3A6E4F" stroke-opacity="0.5" stroke-width="0.7" stroke-miterlimit="3.999327"/>
<line x1="3555.3" y1="1" x2="3555.3" y2="2197" stroke="#3A6E4F" stroke-opacity="0.5" stroke-width="0.7" stroke-miterlimit="3.999327"/>
<line x1="3315.3" y1="1" x2="3315.3" y2="2197" stroke="#3A6E4F" stroke-opacity="0.5" stroke-width="0.7" stroke-miterlimit="3.999327"/>
<line x1="3795.3" y1="1" x2="3795.3" y2="2197" stroke="#3A6E4F" stroke-opacity="0.5" stroke-width="0.7" stroke-miterlimit="3.999327"/>
<line x1="0" y1="2119.7" x2="3874" y2="2119.7" stroke="#3A6E4F" stroke-opacity="0.5" stroke-width="0.7" stroke-miterlimit="3.999327"/>
<line x1="0" y1="1999.7" x2="3874" y2="1999.7" stroke="#3A6E4F" stroke-opacity="0.5" stroke-width="0.7" stroke-miterlimit="3.999327"/>
<line x1="0" y1="1519.7" x2="3874" y2="1519.7" stroke="#3A6E4F" stroke-opacity="0.5" stroke-width="0.7" stroke-miterlimit="3.999327"/>
<line x1="0" y1="1759.7" x2="3874" y2="1759.7" stroke="#3A6E4F" stroke-opacity="0.5" stroke-width="0.7" stroke-miterlimit="3.999327"/>
<line x1="0" y1="1279.7" x2="3874" y2="1279.7" stroke="#3A6E4F" stroke-opacity="0.5" stroke-width="0.7" stroke-miterlimit="3.999327"/>
<line x1="0" y1="1879.7" x2="3874" y2="1879.7" stroke="#3A6E4F" stroke-opacity="0.5" stroke-width="0.7" stroke-miterlimit="3.999327"/>
<line x1="0" y1="1399.7" x2="3874" y2="1399.7" stroke="#3A6E4F" stroke-opacity="0.5" stroke-width="0.7" stroke-miterlimit="3.999327"/>
<line x1="0" y1="1639.7" x2="3874" y2="1639.7" stroke="#3A6E4F" stroke-opacity="0.5" stroke-width="0.7" stroke-miterlimit="3.999327"/>
<line x1="0" y1="1159.7" x2="3874" y2="1159.7" stroke="#3A6E4F" stroke-opacity="0.5" stroke-width="0.7" stroke-miterlimit="3.999327"/>
<line x1="0" y1="1039.7" x2="3874" y2="1039.7" stroke="#3A6E4F" stroke-opacity="0.5" stroke-width="0.7" stroke-miterlimit="3.999327"/>
<line x1="0" y1="559.7" x2="3874" y2="559.7" stroke="#3A6E4F" stroke-opacity="0.5" stroke-width="0.7" stroke-miterlimit="3.999327"/>
<line x1="0" y1="799.7" x2="3874" y2="799.7" stroke="#3A6E4F" stroke-opacity="0.5" stroke-width="0.7" stroke-miterlimit="3.999327"/>
<line x1="0" y1="319.7" x2="3874" y2="319.7" stroke="#3A6E4F" stroke-opacity="0.5" stroke-width="0.7" stroke-miterlimit="3.999327"/>
<line x1="0" y1="919.7" x2="3874" y2="919.7" stroke="#3A6E4F" stroke-opacity="0.5" stroke-width="0.7" stroke-miterlimit="3.999327"/>
<line x1="0" y1="439.7" x2="3874" y2="439.7" stroke="#3A6E4F" stroke-opacity="0.5" stroke-width="0.7" stroke-miterlimit="3.999327"/>
<line x1="0" y1="679.7" x2="3874" y2="679.7" stroke="#3A6E4F" stroke-opacity="0.5" stroke-width="0.7" stroke-miterlimit="3.999327"/>
<line x1="0" y1="199.7" x2="3874" y2="199.7" stroke="#3A6E4F" stroke-opacity="0.5" stroke-width="0.7" stroke-miterlimit="3.999327"/>
<line x1="0" y1="79.7" x2="3874" y2="79.7" stroke="#3A6E4F" stroke-opacity="0.5" stroke-width="0.7" stroke-miterlimit="3.999327"/>
</svg>
