<svg width="1443" height="781" viewBox="0 0 1443 781" fill="none" xmlns="http://www.w3.org/2000/svg">
<g filter="url(#filter0_b_362_163)">
<mask id="path-1-inside-1_362_163" fill="white">
<path fill-rule="evenodd" clip-rule="evenodd" d="M0.418278 747.027C0.418279 746.016 0.418281 745.004 0.418285 743.993C0.411924 744.068 0.405034 744.143 0.397583 744.218C0.308857 745.2 0.316835 746.134 0.418278 747.027ZM0.418315 738.602C0.418579 705.178 0.420158 671.755 0.421737 638.331C0.423541 600.153 0.425345 561.975 0.425188 523.797C0.425044 558.786 0.423391 593.775 0.421738 628.764C0.420009 665.36 0.41828 701.957 0.418278 738.553C0.418278 738.57 0.418291 738.586 0.418315 738.602ZM0.241041 88.184C0.237895 85.3168 0.234697 82.4496 0.231445 79.5824C0.231446 70.7689 2.55642 64.2925 9.55199 58.5489C15.6534 53.5568 21.2244 47.9718 26.7829 42.3994C27.7299 41.4501 28.6765 40.501 29.6254 39.5554C32.9467 36.2478 36.5793 34.4653 41.4575 34.8218C43.6562 34.9853 45.8844 34.9426 48.1083 34.9001C49.1179 34.8807 50.1265 34.8614 51.1311 34.8614C100.502 34.8614 149.693 34.8607 198.753 34.86C516.656 34.8555 829.033 34.851 1148.95 35.0397C1155.84 35.0397 1161.48 33.9331 1166.45 30.6511C1164.82 32.2689 1163.23 33.9174 1161.69 35.6147C1155.47 42.5269 1148.37 44.6065 1138.92 44.6065C819.134 44.4178 514.406 44.4222 198.655 44.4268C149.777 44.4275 100.634 44.4282 51.1311 44.4282C50.1265 44.4282 49.1179 44.4475 48.1083 44.4668C45.8844 44.5094 43.6562 44.552 41.4575 44.3886C36.5793 44.0321 32.9467 45.8146 29.6254 49.1221C28.6765 50.0678 27.7299 51.0168 26.7828 51.9662C21.2243 57.5386 15.6533 63.1235 9.55199 68.1156C2.81429 73.6475 0.409198 79.8592 0.241041 88.184ZM1175.16 22.4129C1177.84 19.9344 1180.52 17.4535 1183.12 14.8981C1186.25 11.8282 1189.63 10.2834 1194.26 10.2834C1236.44 10.4022 1278.65 10.3824 1320.83 10.3032C1325.15 10.2834 1328.38 11.7094 1331.35 14.601C1335.41 18.55 1339.53 22.4557 1343.65 26.3626C1348.33 30.8029 1353.01 35.2449 1357.61 39.7541C1360.95 43.0418 1364.61 44.6461 1369.46 44.4876C1373.25 44.3667 1377.04 44.3945 1380.83 44.4222C1384.49 44.449 1388.15 44.4758 1391.8 44.3688C1396.39 44.2302 1399.85 45.7354 1403.01 48.8449C1411.13 56.8067 1419.37 64.7091 1427.75 72.4333C1431.24 75.6418 1432.94 79.2068 1432.53 83.7819C1432.41 85.0664 1432.45 86.3693 1432.48 87.6655C1432.49 88.268 1432.51 88.869 1432.51 89.4661C1432.51 126.065 1432.51 162.664 1432.5 199.262C1432.5 382.321 1432.49 565.369 1432.69 748.417C1432.69 754.615 1431.56 759.676 1428.45 764.118C1430.07 762.667 1431.72 761.252 1433.4 759.884C1440.44 754.18 1442.73 747.664 1442.73 738.851C1442.52 555.743 1442.53 372.635 1442.54 189.516C1442.54 152.977 1442.54 116.439 1442.54 79.8994C1442.54 79.3021 1442.52 78.7009 1442.51 78.0982C1442.48 76.8022 1442.45 75.4995 1442.56 74.2152C1442.97 69.6401 1441.27 66.0751 1437.78 62.8666C1429.4 55.1424 1421.16 47.24 1413.04 39.2781C1409.89 36.1687 1406.42 34.6634 1401.83 34.8021C1398.18 34.9091 1394.52 34.8823 1390.86 34.8555C1387.07 34.8277 1383.28 34.8 1379.5 34.9209C1374.64 35.0794 1370.98 33.4751 1367.64 30.1874C1363.04 25.6781 1358.36 21.2362 1353.68 16.7959C1349.56 12.8889 1345.44 8.98331 1341.38 5.0343C1338.41 2.14268 1335.18 0.716681 1330.86 0.736486C1288.68 0.815706 1246.48 0.83551 1204.29 0.716675C1199.67 0.716675 1196.28 2.26151 1193.15 5.33137C1190.5 7.93523 1187.77 10.4617 1185.04 12.9872C1181.69 16.0837 1178.34 19.1787 1175.16 22.4129ZM1419.45 772.765C1417.94 774.303 1416.44 775.856 1414.95 777.412C1413.71 778.718 1412.42 779.796 1411.07 780.668C1413.79 777.955 1416.57 775.301 1419.45 772.765Z"/>
</mask>
<path fill-rule="evenodd" clip-rule="evenodd" d="M0.418278 747.027C0.418279 746.016 0.418281 745.004 0.418285 743.993C0.411924 744.068 0.405034 744.143 0.397583 744.218C0.308857 745.2 0.316835 746.134 0.418278 747.027ZM0.418315 738.602C0.418579 705.178 0.420158 671.755 0.421737 638.331C0.423541 600.153 0.425345 561.975 0.425188 523.797C0.425044 558.786 0.423391 593.775 0.421738 628.764C0.420009 665.36 0.41828 701.957 0.418278 738.553C0.418278 738.57 0.418291 738.586 0.418315 738.602ZM0.241041 88.184C0.237895 85.3168 0.234697 82.4496 0.231445 79.5824C0.231446 70.7689 2.55642 64.2925 9.55199 58.5489C15.6534 53.5568 21.2244 47.9718 26.7829 42.3994C27.7299 41.4501 28.6765 40.501 29.6254 39.5554C32.9467 36.2478 36.5793 34.4653 41.4575 34.8218C43.6562 34.9853 45.8844 34.9426 48.1083 34.9001C49.1179 34.8807 50.1265 34.8614 51.1311 34.8614C100.502 34.8614 149.693 34.8607 198.753 34.86C516.656 34.8555 829.033 34.851 1148.95 35.0397C1155.84 35.0397 1161.48 33.9331 1166.45 30.6511C1164.82 32.2689 1163.23 33.9174 1161.69 35.6147C1155.47 42.5269 1148.37 44.6065 1138.92 44.6065C819.134 44.4178 514.406 44.4222 198.655 44.4268C149.777 44.4275 100.634 44.4282 51.1311 44.4282C50.1265 44.4282 49.1179 44.4475 48.1083 44.4668C45.8844 44.5094 43.6562 44.552 41.4575 44.3886C36.5793 44.0321 32.9467 45.8146 29.6254 49.1221C28.6765 50.0678 27.7299 51.0168 26.7828 51.9662C21.2243 57.5386 15.6533 63.1235 9.55199 68.1156C2.81429 73.6475 0.409198 79.8592 0.241041 88.184ZM1175.16 22.4129C1177.84 19.9344 1180.52 17.4535 1183.12 14.8981C1186.25 11.8282 1189.63 10.2834 1194.26 10.2834C1236.44 10.4022 1278.65 10.3824 1320.83 10.3032C1325.15 10.2834 1328.38 11.7094 1331.35 14.601C1335.41 18.55 1339.53 22.4557 1343.65 26.3626C1348.33 30.8029 1353.01 35.2449 1357.61 39.7541C1360.95 43.0418 1364.61 44.6461 1369.46 44.4876C1373.25 44.3667 1377.04 44.3945 1380.83 44.4222C1384.49 44.449 1388.15 44.4758 1391.8 44.3688C1396.39 44.2302 1399.85 45.7354 1403.01 48.8449C1411.13 56.8067 1419.37 64.7091 1427.75 72.4333C1431.24 75.6418 1432.94 79.2068 1432.53 83.7819C1432.41 85.0664 1432.45 86.3693 1432.48 87.6655C1432.49 88.268 1432.51 88.869 1432.51 89.4661C1432.51 126.065 1432.51 162.664 1432.5 199.262C1432.5 382.321 1432.49 565.369 1432.69 748.417C1432.69 754.615 1431.56 759.676 1428.45 764.118C1430.07 762.667 1431.72 761.252 1433.4 759.884C1440.44 754.18 1442.73 747.664 1442.73 738.851C1442.52 555.743 1442.53 372.635 1442.54 189.516C1442.54 152.977 1442.54 116.439 1442.54 79.8994C1442.54 79.3021 1442.52 78.7009 1442.51 78.0982C1442.48 76.8022 1442.45 75.4995 1442.56 74.2152C1442.97 69.6401 1441.27 66.0751 1437.78 62.8666C1429.4 55.1424 1421.16 47.24 1413.04 39.2781C1409.89 36.1687 1406.42 34.6634 1401.83 34.8021C1398.18 34.9091 1394.52 34.8823 1390.86 34.8555C1387.07 34.8277 1383.28 34.8 1379.5 34.9209C1374.64 35.0794 1370.98 33.4751 1367.64 30.1874C1363.04 25.6781 1358.36 21.2362 1353.68 16.7959C1349.56 12.8889 1345.44 8.98331 1341.38 5.0343C1338.41 2.14268 1335.18 0.716681 1330.86 0.736486C1288.68 0.815706 1246.48 0.83551 1204.29 0.716675C1199.67 0.716675 1196.28 2.26151 1193.15 5.33137C1190.5 7.93523 1187.77 10.4617 1185.04 12.9872C1181.69 16.0837 1178.34 19.1787 1175.16 22.4129ZM1419.45 772.765C1417.94 774.303 1416.44 775.856 1414.95 777.412C1413.71 778.718 1412.42 779.796 1411.07 780.668C1413.79 777.955 1416.57 775.301 1419.45 772.765Z" fill="#6EDFE4"/>
<path d="M0.418278 747.027L-1.56895 747.253L2.41828 747.027H0.418278ZM0.418285 743.993H2.41828L-1.57457 743.824L0.418285 743.993ZM0.397583 744.218L-1.59262 744.02L-1.5935 744.029L-1.5943 744.038L0.397583 744.218ZM0.418315 738.602L-1.58168 738.605L2.41832 738.602H0.418315ZM0.421737 638.331L2.42174 638.331L0.421737 638.331ZM0.425188 523.797H2.42519H-1.57481H0.425188ZM0.421738 628.764L-1.57826 628.764L0.421738 628.764ZM0.418278 738.553H-1.58172H0.418278ZM0.241041 88.184L-1.75896 88.1862L2.24063 88.2243L0.241041 88.184ZM0.231445 79.5824H-1.76856L-1.76855 79.5847L0.231445 79.5824ZM9.55199 58.5489L8.28549 57.001L8.28287 57.0031L9.55199 58.5489ZM26.7829 42.3994L25.3669 40.987L26.7829 42.3994ZM29.6254 39.5554L28.2141 38.1382L28.2136 38.1388L29.6254 39.5554ZM41.4575 34.8218L41.6058 32.8273L41.6033 32.8271L41.4575 34.8218ZM48.1083 34.9001L48.0701 32.9004H48.0701L48.1083 34.9001ZM51.1311 34.8614L51.1311 32.8614H51.1311V34.8614ZM198.753 34.86L198.753 32.86L198.753 34.86ZM1148.95 35.0397L1148.95 37.0397H1148.95V35.0397ZM1166.45 30.6511L1167.86 32.0707L1165.35 28.9826L1166.45 30.6511ZM1161.69 35.6147L1160.21 34.2738L1160.21 34.276L1161.69 35.6147ZM1138.92 44.6065L1138.92 46.6065H1138.92V44.6065ZM198.655 44.4268L198.655 46.4268L198.655 44.4268ZM51.1311 44.4282L51.1311 42.4282H51.1311V44.4282ZM48.1083 44.4668L48.1466 46.4664H48.1466L48.1083 44.4668ZM41.4575 44.3886L41.6058 42.3941L41.6033 42.3939L41.4575 44.3886ZM29.6254 49.1221L28.2141 47.7049L28.2136 47.7055L29.6254 49.1221ZM26.7828 51.9662L25.3669 50.5537L26.7828 51.9662ZM9.55199 68.1156L8.2855 66.5677L8.28287 66.5699L9.55199 68.1156ZM1175.16 22.4129L1173.73 21.0108L1176.52 23.8817L1175.16 22.4129ZM1183.12 14.8981L1181.72 13.4692L1181.71 13.4732L1183.12 14.8981ZM1194.26 10.2834L1194.27 8.28341H1194.26V10.2834ZM1320.83 10.3032L1320.83 12.3032L1320.84 12.3032L1320.83 10.3032ZM1331.35 14.601L1329.96 16.0337L1329.96 16.0349L1331.35 14.601ZM1343.65 26.3626L1345.02 24.9118L1345.02 24.9118L1343.65 26.3626ZM1357.61 39.7541L1359.01 38.3284L1359.01 38.3251L1357.61 39.7541ZM1369.46 44.4876L1369.4 42.4887L1369.4 42.4887L1369.46 44.4876ZM1380.83 44.4222L1380.81 46.4222L1380.83 44.4222ZM1391.8 44.3688L1391.86 46.368L1391.86 46.3679L1391.8 44.3688ZM1403.01 48.8449L1401.61 50.2694L1401.61 50.2726L1403.01 48.8449ZM1427.75 72.4333L1426.4 73.9044L1426.4 73.9052L1427.75 72.4333ZM1432.53 83.7819L1430.54 83.6012L1430.54 83.606L1432.53 83.7819ZM1432.48 87.6655L1434.48 87.6169V87.6167L1432.48 87.6655ZM1432.5 199.262L1434.5 199.262L1432.5 199.262ZM1432.69 748.417H1434.69V748.415L1432.69 748.417ZM1428.45 764.118L1426.81 762.969L1429.78 765.607L1428.45 764.118ZM1433.4 759.884L1434.66 761.438L1434.66 761.438L1433.4 759.884ZM1442.73 738.851H1444.73V738.848L1442.73 738.851ZM1442.54 189.516L1444.54 189.516L1442.54 189.516ZM1442.51 78.0982L1444.51 78.0496V78.0494L1442.51 78.0982ZM1442.56 74.2152L1440.57 74.0344L1440.57 74.0393L1442.56 74.2152ZM1437.78 62.8666L1436.43 64.3377L1436.43 64.3384L1437.78 62.8666ZM1413.04 39.2781L1411.64 40.7027L1411.64 40.7059L1413.04 39.2781ZM1401.83 34.8021L1401.89 36.8012L1401.89 36.8012L1401.83 34.8021ZM1390.86 34.8555L1390.84 36.8554L1390.86 34.8555ZM1379.5 34.9209L1379.43 32.9219L1379.43 32.922L1379.5 34.9209ZM1367.64 30.1874L1369.04 28.7616L1369.04 28.7584L1367.64 30.1874ZM1353.68 16.7959L1355.05 15.3451L1355.05 15.3451L1353.68 16.7959ZM1341.38 5.0343L1339.99 6.46694L1339.99 6.46819L1341.38 5.0343ZM1330.86 0.736486L1330.86 2.73649L1330.87 2.73646L1330.86 0.736486ZM1204.29 0.716675L1204.3 -1.28333H1204.29V0.716675ZM1193.15 5.33137L1191.75 3.90249L1191.74 3.90644L1193.15 5.33137ZM1185.04 12.9872L1186.4 14.456V14.456L1185.04 12.9872ZM1419.45 772.765L1420.88 774.169L1418.13 771.263L1419.45 772.765ZM1414.95 777.412L1413.51 776.03L1413.5 776.033L1414.95 777.412ZM1411.07 780.668L1409.66 779.253L1412.16 782.348L1411.07 780.668ZM2.41828 747.027C2.41828 746.016 2.41828 745.004 2.41828 743.993H-1.58172C-1.58172 745.004 -1.58172 746.016 -1.58172 747.027H2.41828ZM2.38779 744.416C2.39624 744.331 2.40401 744.246 2.41114 744.161L-1.57457 743.824C-1.58016 743.89 -1.58617 743.955 -1.59262 744.02L2.38779 744.416ZM2.4055 746.801C2.3205 746.053 2.312 745.255 2.38947 744.398L-1.5943 744.038C-1.69429 745.144 -1.68683 746.215 -1.56895 747.253L2.4055 746.801ZM2.41832 738.602C2.41858 705.178 2.42016 671.755 2.42174 638.331L-1.57826 638.331C-1.57984 671.754 -1.58142 705.178 -1.58168 738.602H2.41832ZM2.42174 638.331C2.42354 600.153 2.42535 561.975 2.42519 523.797H-1.57481C-1.57465 561.974 -1.57646 600.153 -1.57826 638.331L2.42174 638.331ZM2.42174 628.765C2.42339 593.775 2.42504 558.786 2.42519 523.797H-1.57481C-1.57496 558.786 -1.57661 593.775 -1.57826 628.764L2.42174 628.765ZM2.41828 738.553C2.41828 701.957 2.42001 665.36 2.42174 628.765L-1.57826 628.764C-1.57999 665.36 -1.58172 701.956 -1.58172 738.553H2.41828ZM2.41831 738.599C2.41829 738.584 2.41828 738.569 2.41828 738.553H-1.58172C-1.58172 738.571 -1.58171 738.588 -1.58168 738.605L2.41831 738.599ZM2.24104 88.1818C2.23789 85.3146 2.2347 82.4474 2.23144 79.5802L-1.76855 79.5847C-1.7653 82.4518 -1.7621 85.319 -1.75896 88.1862L2.24104 88.1818ZM2.23145 79.5824C2.23145 75.3471 2.79085 71.8107 4.11015 68.6941C5.42236 65.5943 7.5365 62.7914 10.8211 60.0946L8.28287 57.0031C4.57191 60.05 2.02577 63.3571 0.426604 67.1348C-1.16547 70.8957 -1.76855 75.0042 -1.76855 79.5824H2.23145ZM10.8185 60.0968C17.011 55.0301 22.6523 49.3723 28.1988 43.8119L25.3669 40.987C19.7964 46.5714 14.2957 52.0835 8.2855 57.001L10.8185 60.0968ZM28.1988 43.8119C29.1462 42.8621 30.0908 41.9152 31.0372 40.9719L28.2136 38.1388C27.2623 39.0868 26.3135 40.038 25.3669 40.987L28.1988 43.8119ZM31.0367 40.9725C34.042 37.9796 37.133 36.5111 41.3118 36.8165L41.6033 32.8271C36.0256 32.4195 31.8514 34.516 28.2141 38.1382L31.0367 40.9725ZM41.3093 36.8163C43.6169 36.9879 45.9391 36.942 48.1466 36.8997L48.0701 32.9004C45.8298 32.9433 43.6956 32.9827 41.6058 32.8273L41.3093 36.8163ZM48.1466 36.8997C49.1594 36.8803 50.1489 36.8614 51.1311 36.8614V32.8614C50.1042 32.8614 49.0763 32.8812 48.0701 32.9004L48.1466 36.8997ZM51.1311 36.8614C100.502 36.8614 149.693 36.8607 198.753 36.86L198.753 32.86C149.693 32.8607 100.502 32.8614 51.1311 32.8614L51.1311 36.8614ZM198.753 36.86C516.656 36.8555 829.032 36.851 1148.95 37.0397L1148.95 33.0397C829.033 32.851 516.656 32.8555 198.753 32.86L198.753 36.86ZM1148.95 37.0397C1156.06 37.0397 1162.14 35.8993 1167.55 32.3196L1165.35 28.9826C1160.83 31.9669 1155.63 33.0397 1148.95 33.0397V37.0397ZM1163.18 36.9557C1164.68 35.291 1166.25 33.6692 1167.86 32.0707L1165.04 29.2315C1163.39 30.8686 1161.77 32.5437 1160.21 34.2738L1163.18 36.9557ZM1138.92 46.6065C1148.73 46.6065 1156.46 44.4149 1163.18 36.9534L1160.21 34.276C1154.48 40.6389 1148 42.6065 1138.92 42.6065V46.6065ZM198.655 46.4268C514.406 46.4222 819.133 46.4178 1138.92 46.6065L1138.92 42.6065C819.134 42.4178 514.406 42.4222 198.655 42.4268L198.655 46.4268ZM51.1311 46.4282C100.634 46.4282 149.777 46.4275 198.655 46.4268L198.655 42.4268C149.777 42.4275 100.634 42.4282 51.1311 42.4282L51.1311 46.4282ZM48.1466 46.4664C49.1594 46.447 50.1489 46.4282 51.1311 46.4282V42.4282C50.1042 42.4282 49.0763 42.4479 48.07 42.4672L48.1466 46.4664ZM41.3093 46.3831C43.6169 46.5546 45.9391 46.5087 48.1466 46.4664L48.07 42.4672C45.8298 42.51 43.6956 42.5494 41.6058 42.3941L41.3093 46.3831ZM31.0367 50.5392C34.042 47.5464 37.133 46.0779 41.3118 46.3832L41.6033 42.3939C36.0256 41.9863 31.8514 44.0828 28.2141 47.7049L31.0367 50.5392ZM28.1988 53.3786C29.1462 52.4289 30.0908 51.4819 31.0372 50.5387L28.2136 47.7055C27.2623 48.6536 26.3135 49.6047 25.3669 50.5537L28.1988 53.3786ZM10.8185 69.6635C17.011 64.5968 22.6523 58.939 28.1988 53.3786L25.3669 50.5537C19.7964 56.1381 14.2957 61.6502 8.2855 66.5677L10.8185 69.6635ZM2.24063 88.2243C2.32105 84.243 2.93409 80.8901 4.25963 77.9168C5.57983 74.9555 7.65621 72.2599 10.8211 69.6614L8.28287 66.5699C4.71007 69.5033 2.21505 72.6794 0.606243 76.2881C-0.997224 79.8848 -1.67082 83.8002 -1.75855 88.1436L2.24063 88.2243ZM1176.52 23.8817C1179.19 21.406 1181.9 18.9042 1184.52 16.323L1181.71 13.4732C1179.14 16.0028 1176.49 18.4628 1173.8 20.9442L1176.52 23.8817ZM1184.52 16.327C1187.3 13.5957 1190.2 12.2834 1194.26 12.2834V8.28341C1189.07 8.28341 1185.2 10.0608 1181.72 13.4692L1184.52 16.327ZM1194.26 12.2834C1236.44 12.4022 1278.65 12.3824 1320.83 12.3032L1320.82 8.30322C1278.64 8.38244 1236.45 8.40224 1194.27 8.28342L1194.26 12.2834ZM1320.84 12.3032C1324.6 12.2859 1327.34 13.4871 1329.96 16.0337L1332.75 13.1684C1329.42 9.93171 1325.69 8.28089 1320.82 8.30324L1320.84 12.3032ZM1329.96 16.0349C1334.03 19.9938 1338.15 23.9079 1342.27 27.8134L1345.02 24.9118C1340.9 21.0035 1336.8 17.1062 1332.75 13.1671L1329.96 16.0349ZM1342.27 27.8133C1346.95 32.2555 1351.62 36.6867 1356.21 41.1831L1359.01 38.3251C1354.39 33.8031 1349.7 29.3503 1345.02 24.9118L1342.27 27.8133ZM1356.21 41.1799C1359.91 44.8189 1364.08 46.6643 1369.53 46.4866L1369.4 42.4887C1365.13 42.6278 1362 41.2647 1359.01 38.3284L1356.21 41.1799ZM1369.53 46.4866C1373.26 46.3672 1377.02 46.3944 1380.81 46.4222L1380.84 42.4223C1377.06 42.3946 1373.23 42.3663 1369.4 42.4887L1369.53 46.4866ZM1380.81 46.4222C1384.47 46.4489 1388.17 46.4762 1391.86 46.368L1391.74 42.3697C1388.13 42.4754 1384.51 42.4491 1380.84 42.4223L1380.81 46.4222ZM1391.86 46.3679C1395.86 46.2469 1398.81 47.5164 1401.61 50.2694L1404.41 47.4204C1400.9 43.9544 1396.91 42.2135 1391.74 42.3697L1391.86 46.3679ZM1401.61 50.2726C1409.74 58.2448 1417.99 66.1624 1426.4 73.9044L1429.11 70.9622C1420.74 63.2559 1412.52 55.3686 1404.41 47.4171L1401.61 50.2726ZM1426.4 73.9052C1429.52 76.779 1430.88 79.7637 1430.54 83.6012L1434.52 83.9627C1435 78.6499 1432.96 74.5046 1429.11 70.9615L1426.4 73.9052ZM1430.54 83.606C1430.41 85.0215 1430.45 86.4375 1430.48 87.7143L1434.48 87.6167C1434.45 86.3011 1434.42 85.1113 1434.52 83.9578L1430.54 83.606ZM1430.48 87.7141C1430.49 88.3209 1430.51 88.8975 1430.51 89.4661H1434.51C1434.51 88.8406 1434.49 88.2151 1434.48 87.6169L1430.48 87.7141ZM1430.51 89.4661C1430.51 126.065 1430.51 162.664 1430.5 199.262L1434.5 199.262C1434.51 162.664 1434.51 126.065 1434.51 89.4661H1430.51ZM1430.5 199.262C1430.5 382.321 1430.49 565.37 1430.69 748.419L1434.69 748.415C1434.49 565.368 1434.5 382.322 1434.5 199.262L1430.5 199.262ZM1430.69 748.417C1430.69 754.363 1429.61 758.974 1426.81 762.969L1430.08 765.267C1433.52 760.378 1434.69 754.867 1434.69 748.417H1430.69ZM1432.15 758.33C1430.43 759.722 1428.75 761.159 1427.11 762.629L1429.78 765.607C1431.38 764.176 1433 762.783 1434.66 761.438L1432.15 758.33ZM1440.73 738.851C1440.73 743.09 1440.18 746.637 1438.86 749.757C1437.55 752.859 1435.44 755.657 1432.15 758.33L1434.66 761.438C1438.4 758.407 1440.95 755.096 1442.55 751.31C1444.13 747.543 1444.73 743.424 1444.73 738.851H1440.73ZM1440.54 189.516C1440.53 372.635 1440.52 555.744 1440.73 738.853L1444.73 738.848C1444.52 555.742 1444.53 372.635 1444.54 189.516L1440.54 189.516ZM1440.54 79.8994C1440.54 116.439 1440.54 152.977 1440.54 189.516L1444.54 189.516C1444.54 152.977 1444.54 116.439 1444.54 79.8994H1440.54ZM1440.51 78.1468C1440.52 78.7538 1440.54 79.3306 1440.54 79.8994H1444.54C1444.54 79.2737 1444.52 78.648 1444.51 78.0496L1440.51 78.1468ZM1440.57 74.0393C1440.44 75.4546 1440.48 76.8706 1440.51 78.147L1444.51 78.0494C1444.48 76.7338 1444.45 75.5443 1444.55 74.3911L1440.57 74.0393ZM1436.43 64.3384C1439.55 67.2123 1440.92 70.197 1440.57 74.0344L1444.55 74.3959C1445.03 69.0832 1442.99 64.9379 1439.14 61.3947L1436.43 64.3384ZM1411.64 40.7059C1419.77 48.6781 1428.02 56.5956 1436.43 64.3377L1439.14 61.3955C1430.77 53.6892 1422.55 45.8019 1414.44 37.8504L1411.64 40.7059ZM1401.89 36.8012C1405.9 36.6802 1408.84 37.9497 1411.64 40.7027L1414.44 37.8536C1410.93 34.3877 1406.94 32.6467 1401.77 32.803L1401.89 36.8012ZM1390.84 36.8554C1394.5 36.8822 1398.2 36.9095 1401.89 36.8012L1401.77 32.8029C1398.16 32.9087 1394.54 32.8824 1390.87 32.8556L1390.84 36.8554ZM1379.56 36.9199C1383.29 36.8004 1387.05 36.8276 1390.84 36.8554L1390.87 32.8556C1387.09 32.8279 1383.26 32.7995 1379.43 32.9219L1379.56 36.9199ZM1366.24 31.6131C1369.94 35.2522 1374.11 37.0976 1379.56 36.9198L1379.43 32.922C1375.16 33.0611 1372.03 31.698 1369.04 28.7616L1366.24 31.6131ZM1352.3 18.2466C1356.98 22.6887 1361.65 27.1199 1366.24 31.6163L1369.04 28.7584C1364.42 24.2364 1359.73 19.7836 1355.05 15.3451L1352.3 18.2466ZM1339.99 6.46819C1344.06 10.4271 1348.18 14.3411 1352.3 18.2466L1355.05 15.3451C1350.94 11.4368 1346.83 7.5395 1342.78 3.6004L1339.99 6.46819ZM1330.87 2.73646C1334.63 2.7192 1337.37 3.92039 1339.99 6.46694L1342.78 3.60165C1339.46 0.364975 1335.72 -1.28584 1330.85 -1.26349L1330.87 2.73646ZM1204.29 2.71667C1246.47 2.83551 1288.68 2.81571 1330.86 2.73648L1330.85 -1.26351C1288.68 -1.18429 1246.48 -1.16449 1204.3 -1.28332L1204.29 2.71667ZM1194.55 6.76025C1197.34 4.02893 1200.23 2.71667 1204.29 2.71667V-1.28333C1199.1 -1.28333 1195.23 0.494086 1191.75 3.9025L1194.55 6.76025ZM1186.4 14.456C1189.12 11.9341 1191.88 9.38618 1194.55 6.75631L1191.74 3.90644C1189.13 6.48429 1186.42 8.98932 1183.68 11.5185L1186.4 14.456ZM1176.59 23.8151C1179.73 20.6207 1183.04 17.558 1186.4 14.456L1183.68 11.5185C1180.34 14.6094 1176.95 17.7367 1173.73 21.0108L1176.59 23.8151ZM1418.03 771.362C1416.5 772.909 1415 774.469 1413.51 776.03L1416.4 778.794C1417.88 777.242 1419.37 775.697 1420.88 774.169L1418.03 771.362ZM1413.5 776.033C1412.35 777.238 1411.19 778.211 1409.99 778.988L1412.16 782.348C1413.66 781.38 1415.06 780.197 1416.4 778.791L1413.5 776.033ZM1418.13 771.263C1415.21 773.835 1412.4 776.52 1409.66 779.253L1412.49 782.083C1415.18 779.391 1417.93 776.767 1420.77 774.267L1418.13 771.263Z" fill="#6EDFE4" mask="url(#path-1-inside-1_362_163)"/>
</g>
<defs>
<filter id="filter0_b_362_163" x="-24.7686" y="-24.2833" width="1492.49" height="829.951" filterUnits="userSpaceOnUse" color-interpolation-filters="sRGB">
<feFlood flood-opacity="0" result="BackgroundImageFix"/>
<feGaussianBlur in="BackgroundImageFix" stdDeviation="12.5"/>
<feComposite in2="SourceAlpha" operator="in" result="effect1_backgroundBlur_362_163"/>
<feBlend mode="normal" in="SourceGraphic" in2="effect1_backgroundBlur_362_163" result="shape"/>
</filter>
</defs>
</svg>
