<svg width="1433" height="818" viewBox="0 0 1433 818" fill="none" xmlns="http://www.w3.org/2000/svg">
<g filter="url(#filter0_b_362_162)">
<path d="M112.099 817.283C107.781 817.283 104.543 815.857 101.595 812.965C92.8972 804.528 83.971 796.289 75.3149 787.812C71.9727 784.525 68.3192 782.94 63.4618 783.099C56.0302 783.336 48.5572 782.98 41.1257 783.198C36.5381 783.336 33.0922 781.831 29.9162 778.741C21.7996 770.76 13.5794 762.857 5.17221 755.153C1.6849 751.925 -0.0172462 748.379 0.397915 743.785C0.584683 741.903 0.418545 740.002 0.418545 738.12C0.418555 518.456 0.480821 298.813 0.231686 79.1492C0.231686 70.3357 2.55676 63.8592 9.55224 58.1156C16.6931 52.273 23.1075 45.6183 29.6257 39.1221C32.947 35.8146 36.5796 34.0321 41.4578 34.3886C44.6547 34.6262 47.9138 34.4282 51.1313 34.4282C420.423 34.4282 769.631 34.3886 1138.92 34.6065C1148.37 34.6065 1155.47 32.5269 1161.69 25.6147C1168.32 18.2867 1176.04 11.8697 1183.12 4.8981C1186.25 1.82824 1189.63 0.283407 1194.26 0.283407C1236.44 0.402242 1278.65 0.382438 1320.83 0.303218C1325.15 0.283412 1328.38 1.70941 1331.35 4.60103C1340.03 13.0382 1348.96 21.2773 1357.61 29.7541C1360.95 33.0418 1364.61 34.6461 1369.46 34.4876C1376.9 34.25 1384.37 34.5867 1391.8 34.3688C1396.39 34.2302 1399.85 35.7354 1403.01 38.8449C1411.13 46.8067 1419.37 54.7091 1427.75 62.4333C1431.24 65.6418 1432.94 69.2068 1432.53 73.7819C1432.36 75.6634 1432.51 77.5846 1432.51 79.4661C1432.51 299.13 1432.45 518.773 1432.69 738.417C1432.69 747.231 1430.41 753.747 1423.37 759.451C1416.77 764.798 1410.77 770.859 1404.92 776.979C1400.58 781.534 1395.77 783.317 1389.25 783.277C1350.03 783.019 1310.82 783.158 1271.61 783.158L829.373 783.158C643.731 783.158 478.152 783.198 292.53 783C284.165 782.98 277.896 784.941 272.312 790.961C265.233 798.567 257.241 805.38 249.81 812.688C246.675 815.758 243.291 817.303 238.662 817.283C196.481 817.184 154.3 817.184 112.099 817.283Z" fill="#123638" fill-opacity="0.66"/>
<path d="M102.291 812.248L102.295 812.252C105.064 814.967 108.053 816.283 112.096 816.283C154.3 816.184 196.482 816.184 238.665 816.283L238.667 816.283C243.011 816.302 246.147 814.875 249.108 811.975C251.994 809.138 254.935 806.4 257.863 803.674C262.559 799.302 267.224 794.96 271.58 790.28C277.401 784.004 283.968 781.979 292.531 782C451.395 782.169 595.579 782.165 750.224 782.16C776.27 782.159 802.613 782.158 829.373 782.158L1271.61 782.158C1281.78 782.158 1291.94 782.149 1302.11 782.139C1331.16 782.113 1360.21 782.086 1389.25 782.277C1395.53 782.315 1400.07 780.618 1404.2 776.289L1404.2 776.287C1410.05 770.163 1416.09 764.064 1422.74 758.674C1426.15 755.911 1428.37 752.985 1429.75 749.712C1431.13 746.43 1431.69 742.741 1431.69 738.418C1431.49 555.381 1431.5 372.345 1431.5 189.298C1431.51 152.688 1431.51 116.077 1431.51 79.4661C1431.51 78.9206 1431.49 78.3481 1431.48 77.7606C1431.45 76.4361 1431.41 75.035 1431.53 73.694L1431.53 73.6915C1431.91 69.4853 1430.38 66.2104 1427.08 63.1692L1427.08 63.1689C1418.68 55.4357 1410.43 47.5258 1402.31 39.5587L1402.31 39.5571C1399.33 36.6259 1396.13 35.2385 1391.83 35.3683L1391.83 35.3684C1388.16 35.4759 1384.48 35.449 1380.83 35.4223L1380.63 35.4208C1376.9 35.3935 1373.19 35.369 1369.5 35.4871C1364.34 35.6552 1360.43 33.9305 1356.91 30.4673C1352.29 25.9428 1347.63 21.5248 1342.97 17.1022C1338.86 13.2031 1334.75 9.30043 1330.65 5.31797L1330.65 5.31734C1327.86 2.59827 1324.87 1.28467 1320.83 1.30321L1320.83 1.30322C1278.65 1.38244 1236.45 1.40224 1194.26 1.28341C1189.92 1.28371 1186.78 2.71194 1183.82 5.61156C1183.82 5.61189 1183.82 5.61221 1183.82 5.61254L1183.12 4.8981C1180.47 7.50192 1177.74 10.0284 1175.01 12.5538C1170.42 16.7901 1165.84 21.0236 1161.69 25.6147L102.291 812.248ZM102.291 812.248C98.2943 808.37 94.2757 804.56 90.2618 800.754C85.4917 796.231 80.7279 791.713 76.0146 787.098C72.4919 783.633 68.5787 781.931 63.4292 782.099C59.7375 782.217 56.0312 782.188 52.3023 782.156L52.0998 782.154C48.4443 782.122 44.7668 782.09 41.0964 782.198C36.8027 782.328 33.6147 780.943 30.6174 778.028C22.4957 770.042 14.2666 762.131 5.84787 754.416C2.54245 751.354 1.01266 748.099 1.39376 743.876C1.52633 742.534 1.48727 741.136 1.45077 739.82C1.43441 739.233 1.41855 738.662 1.41855 738.12C1.41855 701.521 1.42026 664.923 1.42197 628.325C1.43064 445.265 1.43932 262.213 1.23169 79.148C1.23169 74.8281 1.802 71.1487 3.18957 67.871C4.57336 64.6022 6.79516 61.6736 10.1855 58.8896C16.3287 53.8632 21.9393 48.2384 27.4958 42.6679C28.4419 41.7194 29.3864 40.7725 30.3317 39.8304C33.4946 36.6805 36.8564 35.055 41.3849 35.3859C43.6307 35.5528 45.9379 35.5088 48.1848 35.466C49.1825 35.447 50.1682 35.4282 51.1313 35.4282C100.635 35.4282 149.779 35.4275 198.658 35.4268C514.407 35.4222 819.135 35.4178 1138.92 35.6065L1138.92 35.6065C1148.55 35.6065 1155.96 33.4709 1162.44 26.2841L102.291 812.248Z" stroke="#6EDFE4" stroke-width="1"/>
</g>
<defs>
<filter id="filter0_b_362_162" x="-14.7686" y="-14.7166" width="1462.46" height="847" filterUnits="userSpaceOnUse" color-interpolation-filters="sRGB">
<feFlood flood-opacity="0" result="BackgroundImageFix"/>
<feGaussianBlur in="BackgroundImageFix" stdDeviation="7.5"/>
<feComposite in2="SourceAlpha" operator="in" result="effect1_backgroundBlur_362_162"/>
<feBlend mode="normal" in="SourceGraphic" in2="effect1_backgroundBlur_362_162" result="shape"/>
</filter>
</defs>
</svg>
